<svg xmlns="http://www.w3.org/2000/svg" width="256" height="256" viewBox="0 0 100 100"><path fill="#7a31f4" d="M20.35 80.24Q17.76 80.24 15.80 79.82Q13.84 79.40 12.41 77.79Q10.97 76.18 10.97 72.82L10.97 72.82Q10.97 68.13 13.81 60.22Q16.64 52.31 21.26 44.33L21.26 44.33Q17.76 44.54 15.73 45.38Q13.70 46.22 13.07 47.97L13.07 47.97Q13.35 47.97 13.67 48.67Q13.98 49.37 13.98 50.14L13.98 50.14Q13.98 51.40 12.86 52.14Q11.74 52.87 10.06 52.87L10.06 52.87Q8.10 52.87 6.91 51.82Q5.72 50.77 5.72 48.81L5.72 48.81Q5.72 46.43 7.58 44.47Q9.43 42.51 12.72 41.36Q16.01 40.20 20.00 40.20L20.00 40.20Q21.47 40.20 23.64 40.41L23.64 40.41Q29.38 31.31 35.79 25.54Q42.19 19.76 48.00 19.76L48.00 19.76Q51.36 19.76 53.53 20.74L53.53 20.74L42.54 72.26L32.46 72.26L37.85 46.85Q35.26 45.66 33.09 45.10Q30.92 44.54 28.47 44.33L28.47 44.33Q24.48 52.94 21.93 61.94Q19.37 70.93 19.37 76.32L19.37 76.32Q19.37 78.98 20.35 80.24L20.35 80.24ZM38.48 43.77L42.54 24.73Q39.53 26.34 36.28 30.72Q33.02 35.09 29.94 41.32L29.94 41.32Q34.98 42.30 38.48 43.77L38.48 43.77ZM78.94 73.45Q76.14 73.45 74.08 72.30Q72.02 71.14 72.02 68.27L72.02 68.27Q72.02 66.45 72.92 64.21L72.92 64.21Q74.19 65.61 75.27 66.17Q76.36 66.73 77.61 66.73L77.61 66.73Q81.11 66.73 82.83 62.81Q84.55 58.89 84.55 54.13L84.55 54.13Q84.55 45.24 77.89 45.24L77.89 45.24Q76.00 45.24 74.67 45.45L74.67 45.45L68.94 72.26L58.85 72.26L68.38 27.74L78.73 26.34L75.44 41.88L75.86 41.88Q78.53 41.88 80.84 40.16Q83.14 38.45 84.55 35.83Q85.94 33.20 85.94 30.54L85.94 30.54Q85.94 27.32 83.67 25.15Q81.39 22.98 76.70 22.98L76.70 22.98Q72.44 22.98 68.38 24.91Q64.31 26.83 61.76 30.68Q59.20 34.53 59.20 39.99L59.20 39.99Q59.20 42.58 59.70 43.59Q60.18 44.61 60.18 44.75L60.18 44.75Q56.47 44.75 54.58 43.25Q52.70 41.74 52.70 38.31L52.70 38.31Q52.70 33.55 56.27 29.28Q59.83 25.01 65.72 22.38Q71.59 19.76 78.11 19.76L78.11 19.76Q83.00 19.76 86.37 21.30Q89.72 22.84 91.37 25.36Q93.02 27.88 93.02 30.89L93.02 30.89Q93.02 34.11 91.19 37.12Q89.38 40.13 86.02 42.02L86.02 42.02Q90.22 42.79 92.25 45.91Q94.28 49.02 94.28 53.29L94.28 53.29Q94.28 57.28 92.77 61.97Q91.27 66.66 87.80 70.06Q84.34 73.45 78.94 73.45L78.94 73.45Z"></path></svg>